<?xml version="1.0" encoding="UTF-8"?>
<svg xmlns="http://www.w3.org/2000/svg" xmlns:xlink="http://www.w3.org/1999/xlink" contentScriptType="text/ecmascript" width="88" baseProfile="tiny" zoomAndPan="magnify" contentStyleType="text/css" viewBox="0 0 88 88" height="88" preserveAspectRatio="xMidYMid meet" version="1.0">
    <defs>
        <linearGradient x1="25.348972" gradientTransform="matrix(0.951156,0,0,1,1.172114,0)" y1="37.548233" x2="25.348972" gradientUnits="userSpaceOnUse" y2="39.750675" xlink:type="simple" xlink:actuate="onLoad" id="linearGradient4610" xlink:show="other">
            <stop stop-opacity="1" stop-color="#383936" offset="0"/>
            <stop stop-opacity="1" stop-color="#555753" offset="1"/>
        </linearGradient>
        <radialGradient gradientUnits="userSpaceOnUse" xlink:type="simple" r="2.1617265" xlink:actuate="onLoad" cx="12.993087" id="radialGradient6119" cy="18.399908" xlink:show="other" fx="12.993087" fy="18.399908">
            <stop stop-opacity="1" stop-color="#ffffff" offset="0"/>
            <stop stop-opacity="0" stop-color="#ffffff" offset="1"/>
        </radialGradient>
        <radialGradient gradientUnits="userSpaceOnUse" xlink:type="simple" r="2.1617265" xlink:actuate="onLoad" cx="12.993087" id="radialGradient6115" cy="18.399908" xlink:show="other" fx="12.993087" fy="18.399908">
            <stop stop-opacity="1" stop-color="#ffffff" offset="0"/>
            <stop stop-opacity="0" stop-color="#ffffff" offset="1"/>
        </radialGradient>
        <radialGradient gradientUnits="userSpaceOnUse" xlink:type="simple" r="2.1617265" xlink:actuate="onLoad" cx="12.993087" id="radialGradient6111" cy="18.399908" xlink:show="other" fx="12.993087" fy="18.399908">
            <stop stop-opacity="1" stop-color="#ffffff" offset="0"/>
            <stop stop-opacity="0" stop-color="#ffffff" offset="1"/>
        </radialGradient>
        <linearGradient x1="23.20356" y1="24.077753" x2="30.741646" gradientUnits="userSpaceOnUse" y2="36.054375" xlink:type="simple" xlink:actuate="onLoad" id="linearGradient6093" xlink:show="other">
            <stop stop-opacity="1" stop-color="#2e3436" offset="0"/>
            <stop stop-opacity="0" stop-color="#2e3436" offset="1"/>
        </linearGradient>
        <radialGradient gradientTransform="matrix(1,0,0,2.02439,0,-18.34044)" id="radialGradient4790" gradientUnits="userSpaceOnUse" xlink:show="other" xlink:type="simple" r="1.8119612" cx="13.832776" fx="13.832776" cy="17.903767" fy="17.903767" xlink:actuate="onLoad">
            <stop stop-opacity="1" stop-color="#000000" offset="0"/>
            <stop stop-opacity="0" stop-color="#000000" offset="1"/>
        </radialGradient>
        <radialGradient gradientTransform="matrix(1,0,0,2.02439,0,-18.34044)" id="radialGradient4786" gradientUnits="userSpaceOnUse" xlink:show="other" xlink:type="simple" r="1.8119612" cx="13.832776" fx="13.832776" cy="17.903767" fy="17.903767" xlink:actuate="onLoad">
            <stop stop-opacity="1" stop-color="#000000" offset="0"/>
            <stop stop-opacity="0" stop-color="#000000" offset="1"/>
        </radialGradient>
        <radialGradient gradientTransform="matrix(1,0,0,2.02439,0,-18.34044)" id="radialGradient4782" gradientUnits="userSpaceOnUse" xlink:show="other" xlink:type="simple" r="1.8119612" cx="13.832776" fx="13.832776" cy="17.903767" fy="17.903767" xlink:actuate="onLoad">
            <stop stop-opacity="1" stop-color="#000000" offset="0"/>
            <stop stop-opacity="0" stop-color="#000000" offset="1"/>
        </radialGradient>
        <linearGradient x1="24.03125" gradientTransform="matrix(1.125982,0,0,1.126747,-4.079607,-5.365805)" y1="7.53125" x2="24.03125" gradientUnits="userSpaceOnUse" y2="15.53125" xlink:type="simple" xlink:actuate="onLoad" id="linearGradient4772" xlink:show="other">
            <stop stop-opacity="1" stop-color="#999a98" offset="0"/>
            <stop stop-opacity="1" stop-color="#caccc8" offset="0.5"/>
            <stop stop-opacity="1" stop-color="#616161" offset="1"/>
        </linearGradient>
        <linearGradient x1="10.998293" y1="11.928971" x2="14.539844" gradientUnits="userSpaceOnUse" y2="13.486036" xlink:type="simple" xlink:actuate="onLoad" id="linearGradient4764" xlink:show="other">
            <stop stop-opacity="1" stop-color="#999a98" offset="0"/>
            <stop stop-opacity="1" stop-color="#caccc8" offset="0.5"/>
            <stop stop-opacity="1" stop-color="#616161" offset="1"/>
        </linearGradient>
        <linearGradient x1="24.804379" y1="7.3598351" x2="24.804379" gradientUnits="userSpaceOnUse" y2="13.861036" xlink:type="simple" xlink:actuate="onLoad" xlink:show="other">
            <stop stop-opacity="1" stop-color="#d3d7cf" offset="0"/>
            <stop stop-opacity="0" stop-color="#888a85" offset="1"/>
        </linearGradient>
        <linearGradient x1="10.998293" y1="11.928971" x2="14.539844" gradientUnits="userSpaceOnUse" y2="13.486036" xlink:type="simple" xlink:actuate="onLoad" id="linearGradient4744" xlink:show="other">
            <stop stop-opacity="1" stop-color="#999a98" offset="0"/>
            <stop stop-opacity="1" stop-color="#caccc8" offset="0.5"/>
            <stop stop-opacity="1" stop-color="#616161" offset="1"/>
        </linearGradient>
        <radialGradient gradientTransform="matrix(1.944444,0,0,1.944444,-12.77212,-16.7839)" id="radialGradient4712" gradientUnits="userSpaceOnUse" xlink:show="other" xlink:type="simple" r="1.5909903" cx="12.887021" fx="12.887021" cy="16.771133" fy="16.771133" xlink:actuate="onLoad">
            <stop stop-opacity="1" stop-color="#000000" offset="0"/>
            <stop stop-opacity="0" stop-color="#000000" offset="1"/>
        </radialGradient>
        <radialGradient gradientTransform="matrix(1.944444,0,0,1.944444,-12.77212,-16.7839)" id="radialGradient4705" gradientUnits="userSpaceOnUse" xlink:show="other" xlink:type="simple" r="1.5909903" cx="12.887021" fx="12.887021" cy="16.771133" fy="16.771133" xlink:actuate="onLoad">
            <stop stop-opacity="1" stop-color="#000000" offset="0"/>
            <stop stop-opacity="0" stop-color="#000000" offset="1"/>
        </radialGradient>
        <radialGradient gradientTransform="matrix(1.944444,0,0,1.944444,-12.77212,-16.7839)" id="radialGradient4699" gradientUnits="userSpaceOnUse" xlink:show="other" xlink:type="simple" r="1.5909903" cx="12.887021" fx="12.887021" cy="16.771133" fy="16.771133" xlink:actuate="onLoad">
            <stop stop-opacity="1" stop-color="#000000" offset="0"/>
            <stop stop-opacity="0" stop-color="#000000" offset="1"/>
        </radialGradient>
        <radialGradient gradientTransform="matrix(1,0,0,0.286624,-1.249436e-15,30.11199)" gradientUnits="userSpaceOnUse" xlink:type="simple" r="20.815456" xlink:actuate="onLoad" cx="24.969707" cy="42.210564" xlink:show="other" fx="24.969707" fy="42.210564">
            <stop stop-opacity="1" stop-color="#000000" offset="0"/>
            <stop stop-opacity="0" stop-color="#000000" offset="1"/>
        </radialGradient>
        <linearGradient x1="37.270947" gradientTransform="matrix(1.125982,0,0,1.272791,-4.167995,-7.706526)" y1="27.272932" x2="35.871902" gradientUnits="userSpaceOnUse" y2="22.67392" xlink:type="simple" xlink:actuate="onLoad" id="linearGradient4543" xlink:show="other">
            <stop stop-opacity="1" stop-color="#ffffff" offset="0"/>
            <stop stop-opacity="1" stop-color="#e6e6e6" offset="1"/>
        </linearGradient>
        <radialGradient gradientTransform="matrix(2.049266,-1.696401e-32,0.000000,2.049266,-25.65002,-37.31089)" gradientUnits="userSpaceOnUse" xlink:type="simple" r="20.530962" xlink:actuate="onLoad" cx="24.445690" cy="35.878170" xlink:show="other" fx="24.445690" fy="35.878170">
            <stop stop-opacity="1.0000000" stop-color="#ffffff" offset="0.0000000"/>
            <stop stop-opacity="1.0000000" stop-color="#dcdcdc" offset="1.0000000"/>
        </radialGradient>
        <radialGradient gradientTransform="matrix(1.000000,0.000000,0.000000,0.338462,2.220359e-14,29.48178)" gradientUnits="userSpaceOnUse" xlink:type="simple" r="6.5659914" xlink:actuate="onLoad" cx="30.203562" cy="44.565483" xlink:show="other" fx="30.203562" fy="44.565483">
            <stop stop-opacity="1" stop-color="#000000" offset="0"/>
            <stop stop-opacity="0" stop-color="#000000" offset="1"/>
        </radialGradient>
        <radialGradient gradientTransform="matrix(1.243453,2.106784e-16,-2.106784e-16,1.243453,-6.713754,-3.742847)" gradientUnits="userSpaceOnUse" xlink:type="simple" r="3.8335034" xlink:actuate="onLoad" cx="27.577173" cy="15.048258" xlink:show="other" fx="27.577173" fy="15.048258">
            <stop stop-opacity="1" stop-color="#ef2929" offset="0"/>
            <stop stop-opacity="0" stop-color="#ef2929" offset="1"/>
        </radialGradient>
        <radialGradient gradientTransform="matrix(1.243453,2.106784e-16,-2.106784e-16,1.243453,-6.713754,-3.742847)" gradientUnits="userSpaceOnUse" xlink:type="simple" r="3.8335034" xlink:actuate="onLoad" cx="27.577173" cy="16.049133" xlink:show="other" fx="27.577173" fy="16.049133">
            <stop stop-opacity="1" stop-color="#ef2929" offset="0"/>
            <stop stop-opacity="0" stop-color="#ef2929" offset="1"/>
        </radialGradient>
        <radialGradient gradientTransform="matrix(1.995058,-1.651527e-32,0.000000,1.995058,-24.32488,-35.70087)" gradientUnits="userSpaceOnUse" xlink:type="simple" r="20.530962" xlink:actuate="onLoad" cx="24.445690" cy="35.878170" xlink:show="other" fx="24.445690" fy="35.878170">
            <stop stop-opacity="1.0000000" stop-color="#ffffff" offset="0.0000000"/>
            <stop stop-opacity="1.0000000" stop-color="#dcdcdc" offset="1.0000000"/>
        </radialGradient>
        <radialGradient gradientTransform="matrix(1.000000,0.000000,0.000000,0.338462,-1.353344e-14,29.48178)" gradientUnits="userSpaceOnUse" xlink:type="simple" r="6.5659914" xlink:actuate="onLoad" cx="30.203562" cy="44.565483" xlink:show="other" fx="30.203562" fy="44.565483">
            <stop stop-opacity="1" stop-color="#000000" offset="0"/>
            <stop stop-opacity="0" stop-color="#000000" offset="1"/>
        </radialGradient>
        <radialGradient gradientTransform="matrix(1.000000,0.000000,0.000000,0.338462,3.185827e-15,29.48178)" gradientUnits="userSpaceOnUse" xlink:type="simple" r="6.5659914" xlink:actuate="onLoad" cx="30.203562" cy="44.565483" xlink:show="other" fx="30.203562" fy="44.565483">
            <stop stop-opacity="1" stop-color="#000000" offset="0"/>
            <stop stop-opacity="0" stop-color="#000000" offset="1"/>
        </radialGradient>
        <radialGradient gradientTransform="matrix(1.995058,-1.651527e-32,0.000000,1.995058,-24.32488,-35.70087)" gradientUnits="userSpaceOnUse" xlink:type="simple" r="20.530962" xlink:actuate="onLoad" cx="24.445690" cy="35.878170" xlink:show="other" fx="24.445690" fy="35.878170">
            <stop stop-opacity="1.0000000" stop-color="#ffffff" offset="0.0000000"/>
            <stop stop-opacity="1.0000000" stop-color="#dcdcdc" offset="1.0000000"/>
        </radialGradient>
        <radialGradient gradientTransform="matrix(1.000000,0.000000,0.000000,0.338462,2.166583e-14,29.48178)" gradientUnits="userSpaceOnUse" xlink:type="simple" r="6.5659914" xlink:actuate="onLoad" cx="30.203562" cy="44.565483" xlink:show="other" fx="30.203562" fy="44.565483">
            <stop stop-opacity="1" stop-color="#000000" offset="0"/>
            <stop stop-opacity="0" stop-color="#000000" offset="1"/>
        </radialGradient>
        <radialGradient gradientTransform="matrix(1.243453,2.106784e-16,-2.106784e-16,1.243453,-6.713754,-3.742847)" gradientUnits="userSpaceOnUse" xlink:type="simple" r="3.8335034" xlink:actuate="onLoad" cx="27.577173" cy="16.049133" xlink:show="other" fx="27.577173" fy="16.049133">
            <stop stop-opacity="1" stop-color="#ef2929" offset="0"/>
            <stop stop-opacity="0" stop-color="#ef2929" offset="1"/>
        </radialGradient>
        <radialGradient gradientTransform="matrix(1.243453,2.106784e-16,-2.106784e-16,1.243453,-6.713754,-3.742847)" gradientUnits="userSpaceOnUse" xlink:type="simple" r="3.8335034" xlink:actuate="onLoad" cx="27.577173" cy="15.048258" xlink:show="other" fx="27.577173" fy="15.048258">
            <stop stop-opacity="1" stop-color="#ef2929" offset="0"/>
            <stop stop-opacity="0" stop-color="#ef2929" offset="1"/>
        </radialGradient>
        <radialGradient gradientTransform="matrix(1.000000,0.000000,0.000000,0.487395,0.000000,20.06483)" gradientUnits="userSpaceOnUse" xlink:type="simple" r="8.5000000" xlink:actuate="onLoad" cx="12.071428" cy="39.142857" xlink:show="other" fx="12.071428" fy="39.142857">
            <stop stop-opacity="1" stop-color="#000000" offset="0"/>
            <stop stop-opacity="0" stop-color="#000000" offset="1"/>
        </radialGradient>
        <linearGradient x1="13.267134" gradientTransform="translate(-60.85714,0.428571)" y1="19.774456" x2="26.758644" gradientUnits="userSpaceOnUse" y2="33.462429" xlink:type="simple" xlink:actuate="onLoad" xlink:show="other">
            <stop stop-opacity="0.0000000" stop-color="#204a87" offset="0.0000000"/>
            <stop stop-opacity="1.0000000" stop-color="#204a87" offset="0.50000000"/>
            <stop stop-opacity="0" stop-color="#204a87" offset="1"/>
        </linearGradient>
        <linearGradient x1="9.6957054" gradientTransform="translate(-60.57143,0.000000)" y1="9.3458843" x2="35.679932" gradientUnits="userSpaceOnUse" y2="39.033859" xlink:type="simple" xlink:actuate="onLoad" xlink:show="other">
            <stop stop-opacity="0.0000000" stop-color="#204a87" offset="0.0000000"/>
            <stop stop-opacity="1.0000000" stop-color="#204a87" offset="0.50000000"/>
            <stop stop-opacity="0" stop-color="#204a87" offset="1"/>
        </linearGradient>
        <linearGradient x1="15.828360" gradientTransform="translate(-60.28571,-0.285714)" y1="3.7744560" x2="43.615788" gradientUnits="userSpaceOnUse" y2="34.462429" xlink:type="simple" xlink:actuate="onLoad" xlink:show="other">
            <stop stop-opacity="0.0000000" stop-color="#204a87" offset="0.0000000"/>
            <stop stop-opacity="1.0000000" stop-color="#204a87" offset="0.50000000"/>
            <stop stop-opacity="0" stop-color="#204a87" offset="1"/>
        </linearGradient>
        <linearGradient xlink:type="simple" xlink:actuate="onLoad" xlink:show="other">
            <stop stop-opacity="1" stop-color="#000000" offset="0"/>
            <stop stop-opacity="0" stop-color="#000000" offset="1"/>
        </linearGradient>
        <linearGradient xlink:type="simple" xlink:actuate="onLoad" xlink:show="other">
            <stop stop-opacity="0.0000000" stop-color="#204a87" offset="0.0000000"/>
            <stop stop-opacity="1.0000000" stop-color="#204a87" offset="0.50000000"/>
            <stop stop-opacity="0" stop-color="#204a87" offset="1"/>
        </linearGradient>
        <linearGradient xlink:type="simple" xlink:actuate="onLoad" xlink:show="other">
            <stop stop-opacity="1" stop-color="#ef2929" offset="0"/>
            <stop stop-opacity="0" stop-color="#ef2929" offset="1"/>
        </linearGradient>
        <linearGradient xlink:type="simple" xlink:actuate="onLoad" xlink:show="other">
            <stop stop-opacity="1" stop-color="#000000" offset="0"/>
            <stop stop-opacity="0" stop-color="#000000" offset="1"/>
        </linearGradient>
        <linearGradient xlink:type="simple" xlink:actuate="onLoad" xlink:show="other">
            <stop stop-opacity="1.0000000" stop-color="#ffffff" offset="0.0000000"/>
            <stop stop-opacity="1.0000000" stop-color="#dcdcdc" offset="1.0000000"/>
        </linearGradient>
        <linearGradient xlink:type="simple" xlink:actuate="onLoad" xlink:show="other">
            <stop stop-opacity="1" stop-color="#ffffff" offset="0"/>
            <stop stop-opacity="1" stop-color="#e6e6e6" offset="1"/>
        </linearGradient>
        <linearGradient xlink:type="simple" xlink:actuate="onLoad" xlink:show="other">
            <stop stop-opacity="1" stop-color="#7f7f70" offset="0"/>
            <stop stop-opacity="1" stop-color="#a6a69c" offset="1"/>
        </linearGradient>
        <linearGradient xlink:type="simple" xlink:actuate="onLoad" xlink:show="other">
            <stop stop-opacity="1" stop-color="#000000" offset="0"/>
            <stop stop-opacity="0" stop-color="#000000" offset="1"/>
        </linearGradient>
        <linearGradient xlink:type="simple" xlink:actuate="onLoad" xlink:show="other">
            <stop stop-opacity="1" stop-color="#000000" offset="0"/>
            <stop stop-opacity="0" stop-color="#000000" offset="1"/>
        </linearGradient>
        <linearGradient xlink:type="simple" xlink:actuate="onLoad" xlink:show="other">
            <stop stop-opacity="1" stop-color="#999a98" offset="0"/>
            <stop stop-opacity="1" stop-color="#caccc8" offset="0.5"/>
            <stop stop-opacity="1" stop-color="#616161" offset="1"/>
        </linearGradient>
        <linearGradient xlink:type="simple" xlink:actuate="onLoad" xlink:show="other">
            <stop stop-opacity="1" stop-color="#d3d7cf" offset="0"/>
            <stop stop-opacity="0" stop-color="#888a85" offset="1"/>
        </linearGradient>
        <linearGradient xlink:type="simple" xlink:actuate="onLoad" xlink:show="other">
            <stop stop-opacity="1" stop-color="#000000" offset="0"/>
            <stop stop-opacity="0" stop-color="#000000" offset="1"/>
        </linearGradient>
        <linearGradient x1="33.396004" gradientTransform="matrix(0.734574,0,0,0.73094,13.35394,3.76021)" y1="36.921333" x2="34.170048" gradientUnits="userSpaceOnUse" y2="38.070381" xlink:type="simple" xlink:actuate="onLoad" id="linearGradient6052" xlink:show="other">
            <stop stop-opacity="1" stop-color="#ffffff" offset="0"/>
            <stop stop-opacity="0" stop-color="#ffffff" offset="1"/>
        </linearGradient>
        <linearGradient xlink:type="simple" xlink:actuate="onLoad" xlink:show="other">
            <stop stop-opacity="1" stop-color="#ffffff" offset="0"/>
            <stop stop-opacity="0" stop-color="#ffffff" offset="1"/>
        </linearGradient>
        <linearGradient x1="35.996582" gradientTransform="matrix(0.734574,0,0,0.73094,13.14657,3.97815)" y1="40.458221" x2="33.664921" gradientUnits="userSpaceOnUse" y2="37.770721" xlink:type="simple" xlink:actuate="onLoad" id="linearGradient6055" xlink:show="other">
            <stop stop-opacity="1" stop-color="#7c7c7c" offset="0"/>
            <stop stop-opacity="1" stop-color="#b8b8b8" offset="1"/>
        </linearGradient>
        <linearGradient xlink:type="simple" xlink:actuate="onLoad" xlink:show="other">
            <stop stop-opacity="1" stop-color="#7c7c7c" offset="0"/>
            <stop stop-opacity="1" stop-color="#b8b8b8" offset="1"/>
        </linearGradient>
        <linearGradient xlink:type="simple" xlink:actuate="onLoad" xlink:show="other">
            <stop stop-opacity="1" stop-color="#2e3436" offset="0"/>
            <stop stop-opacity="0" stop-color="#2e3436" offset="1"/>
        </linearGradient>
        <linearGradient xlink:type="simple" xlink:actuate="onLoad" xlink:show="other">
            <stop stop-opacity="1" stop-color="#ffffff" offset="0"/>
            <stop stop-opacity="0" stop-color="#ffffff" offset="1"/>
        </linearGradient>
        <linearGradient xlink:type="simple" xlink:actuate="onLoad" xlink:show="other">
            <stop stop-opacity="1" stop-color="#383936" offset="0"/>
            <stop stop-opacity="1" stop-color="#555753" offset="1"/>
        </linearGradient>
        <linearGradient x1="302.85715" gradientTransform="matrix(2.774389,0,0,1.969706,-1892.179,-872.8854)" y1="366.64789" x2="302.85715" gradientUnits="userSpaceOnUse" y2="609.50507" xlink:type="simple" xlink:actuate="onLoad" id="linearGradient6715" xlink:show="other">
            <stop stop-opacity="0" stop-color="#000000" offset="0"/>
            <stop stop-opacity="1" stop-color="#000000" offset="0.5"/>
            <stop stop-opacity="0" stop-color="#000000" offset="1"/>
        </linearGradient>
        <linearGradient xlink:type="simple" xlink:actuate="onLoad" xlink:show="other">
            <stop stop-opacity="0" stop-color="#000000" offset="0"/>
            <stop stop-opacity="1" stop-color="#000000" offset="0.5"/>
            <stop stop-opacity="0" stop-color="#000000" offset="1"/>
        </linearGradient>
        <radialGradient gradientTransform="matrix(2.774389,0,0,1.969706,-1891.633,-872.8854)" id="radialGradient6717" gradientUnits="userSpaceOnUse" xlink:show="other" xlink:type="simple" r="117.14286" cx="605.71429" fx="605.71429" cy="486.64789" fy="486.64789" xlink:actuate="onLoad">
            <stop stop-opacity="1" stop-color="#000000" offset="0"/>
            <stop stop-opacity="0" stop-color="#000000" offset="1"/>
        </radialGradient>
        <linearGradient xlink:type="simple" xlink:actuate="onLoad" xlink:show="other">
            <stop stop-opacity="1" stop-color="#000000" offset="0"/>
            <stop stop-opacity="0" stop-color="#000000" offset="1"/>
        </linearGradient>
        <radialGradient gradientTransform="matrix(-2.774389,0,0,1.969706,112.7623,-872.8854)" id="radialGradient6719" gradientUnits="userSpaceOnUse" xlink:show="other" xlink:type="simple" r="117.14286" cx="605.71429" fx="605.71429" cy="486.64789" fy="486.64789" xlink:actuate="onLoad">
            <stop stop-opacity="1" stop-color="#000000" offset="0"/>
            <stop stop-opacity="0" stop-color="#000000" offset="1"/>
        </radialGradient>
        <linearGradient gradientTransform="matrix(0.734574,0,0,0.73094,13.35394,3.76021)" id="linearGradient3511" gradientUnits="userSpaceOnUse" xlink:show="other" xlink:type="simple" x1="33.396004" y1="36.921333" y2="38.070381" x2="34.170048" xlink:actuate="onLoad">
            <stop stop-opacity="1" stop-color="#ffffff" offset="0"/>
            <stop stop-opacity="0" stop-color="#ffffff" offset="1"/>
        </linearGradient>
        <linearGradient gradientTransform="matrix(-0.783152,0,0,1.126747,45.83291,-5.199614)" id="linearGradient3518" gradientUnits="userSpaceOnUse" xlink:show="other" xlink:type="simple" x1="10.998293" y1="11.928971" y2="13.486036" x2="14.539844" xlink:actuate="onLoad">
            <stop stop-opacity="1" stop-color="#999a98" offset="0"/>
            <stop stop-opacity="1" stop-color="#caccc8" offset="0.5"/>
            <stop stop-opacity="1" stop-color="#616161" offset="1"/>
        </linearGradient>
        <linearGradient gradientTransform="matrix(1.125982,0,0,1.126747,-5.884205,-5.199614)" id="linearGradient3525" gradientUnits="userSpaceOnUse" xlink:show="other" xlink:type="simple" x1="10.998293" y1="11.928971" y2="13.486036" x2="14.539844" xlink:actuate="onLoad">
            <stop stop-opacity="1" stop-color="#999a98" offset="0"/>
            <stop stop-opacity="1" stop-color="#caccc8" offset="0.5"/>
            <stop stop-opacity="1" stop-color="#616161" offset="1"/>
        </linearGradient>
    </defs>
    <g transform="matrix(1.7188342,0,0,1.7188342,2.8369784,3.0491758)">
        <g transform="matrix(2.105461e-2,0,0,2.086758e-2,42.67494,38.5019)" display="inline">
            <rect fill-opacity="0.40206185" display="inline" stroke="none" visibility="visible" stroke-linecap="round" width="1339.6335" stroke-miterlimit="4" stroke-opacity="1" fill="url(#linearGradient6715)" stroke-dasharray="none" stroke-width="1" color="#000000" height="478.35718" x="-1559.2523" stroke-linejoin="miter" y="-150.69685" stroke-dashoffset="0" fill-rule="nonzero"/>
            <path fill-opacity="0.40206185" display="inline" stroke="none" d="M -219.61876 -150.68037 C -219.61876 -150.68037 -219.61876 327.6504 -219.61876 327.6504 C -76.74459 328.55087 125.78146 220.48076 125.78138 88.45424 C 125.78138 -43.572304 -33.655437 -150.68036 -219.61876 -150.68037 z " visibility="visible" stroke-linecap="round" stroke-miterlimit="4" stroke-opacity="1" fill="url(#radialGradient6717)" stroke-dasharray="none" stroke-width="1" color="#000000" stroke-linejoin="miter" stroke-dashoffset="0" fill-rule="nonzero"/>
            <path fill-opacity="0.40206185" display="inline" stroke="none" d="M -1559.2523 -150.68037 C -1559.2523 -150.68037 -1559.2523 327.6504 -1559.2523 327.6504 C -1702.1263 328.55087 -1904.6523 220.48076 -1904.6523 88.45424 C -1904.6523 -43.572304 -1745.2156 -150.68036 -1559.2523 -150.68037 z " visibility="visible" stroke-linecap="round" stroke-miterlimit="4" stroke-opacity="1" fill="url(#radialGradient6719)" stroke-dasharray="none" stroke-width="1" color="#000000" stroke-linejoin="miter" stroke-dashoffset="0" fill-rule="nonzero"/>
        </g>
        <path fill-opacity="1" display="block" stroke="#2e3436" d="M 7.1903815 30.619255 L 6.957944 41.499992 L 41.036465 41.499992 L 40.503613 28.827805 L 7.1903815 30.619255 z " visibility="visible" stroke-linecap="butt" stroke-miterlimit="4" stroke-opacity="1" fill="url(#linearGradient4610)" stroke-dasharray="none" stroke-width="0.99999994" color="#000000" stroke-linejoin="round" stroke-dashoffset="0" fill-rule="evenodd"/>
        <path fill-opacity="0.23076926" display="block" stroke="none" d="M 7.5296063 37.613895 L 7.3305593 41.0 L 41.314312 41.0 L 7.8281775 40.502045 L 7.5296063 37.613895 z " visibility="visible" stroke-linecap="round" stroke-miterlimit="4" stroke-opacity="1" fill="#ffffff" stroke-dasharray="none" stroke-width="1.5" color="#000000" stroke-linejoin="miter" stroke-dashoffset="0" fill-rule="evenodd"/>
        <path fill-opacity="1" display="block" stroke="#686868" d="M 6.8123474 11.277009 L 39.685524 11.277009 L 43.01867 36.96411 L 5.0307393 36.96411 L 6.8123474 11.277009 z " visibility="visible" stroke-linecap="butt" stroke-miterlimit="4" stroke-opacity="1" fill="#cacaca" stroke-dasharray="none" stroke-width="1.00000072" color="#000000" stroke-linejoin="miter" stroke-dashoffset="0" fill-rule="evenodd"/>
        <path fill-opacity="1" display="block" stroke="#868a84" d="M 6.182469 8.500004 L 39.921 8.500004 L 43.341885 35.50001 L 4.3539615 35.50001 L 6.182469 8.500004 z " visibility="visible" stroke-linecap="butt" stroke-miterlimit="4" stroke-opacity="1" fill="url(#linearGradient4543)" stroke-dasharray="none" stroke-width="1.00000083" color="#000000" stroke-linejoin="miter" stroke-dashoffset="0" fill-rule="evenodd"/>
        <path fill-opacity="1" display="block" stroke="#ffffff" d="M 7.12847 9.500003 L 39.02851 9.500003 L 42.073547 34.5 L 5.423245 34.5 L 7.12847 9.500003 z " visibility="visible" stroke-linecap="butt" stroke-miterlimit="4" stroke-opacity="1" fill="none" stroke-dasharray="none" stroke-width="1" color="#000000" stroke-linejoin="miter" stroke-dashoffset="0" fill-rule="evenodd"/>
        <path fill-opacity="0.20879122" display="block" stroke="none" d="M 42.811016 35.03888 L 42.089622 29.15164 L 35.826653 35.06173 L 42.811016 35.03888 z " visibility="visible" stroke-linecap="round" stroke-miterlimit="4" stroke-opacity="1" fill="#000000" stroke-dasharray="none" stroke-width="1.5" color="#000000" stroke-linejoin="miter" stroke-dashoffset="0" fill-rule="evenodd"/>
        <path fill-opacity="0.33516487" display="block" stroke="none" d="M 15.644737 17.903769 C 15.644737 19.929611 14.833494 21.571884 13.832776 21.571884 C 12.832058 21.571884 12.020815 19.929611 12.020815 17.903769 C 12.020815 15.877924 12.832058 14.235652 13.832776 14.235652 C 14.833494 14.235652 15.644737 15.877924 15.644737 17.903769 z " visibility="visible" stroke-linecap="round" transform="matrix(1.620316,0,0,1.126747,0.837299,-7.689396)" stroke-miterlimit="4" stroke-opacity="1" fill="url(#radialGradient4790)" stroke-dasharray="none" stroke-width="1.5" color="#000000" stroke-linejoin="miter" stroke-dashoffset="0" fill-rule="evenodd"/>
        <path fill-opacity="0.33516487" display="block" stroke="none" d="M 15.644737 17.903769 C 15.644737 19.929611 14.833494 21.571884 13.832776 21.571884 C 12.832058 21.571884 12.020815 19.929611 12.020815 17.903769 C 12.020815 15.877924 12.832058 14.235652 13.832776 14.235652 C 14.833494 14.235652 15.644737 15.877924 15.644737 17.903769 z " visibility="visible" stroke-linecap="round" transform="matrix(1.125982,0,0,0.958072,19.31959,-5.288202)" stroke-miterlimit="4" stroke-opacity="1" fill="url(#radialGradient4786)" stroke-dasharray="none" stroke-width="1.5" color="#000000" stroke-linejoin="miter" stroke-dashoffset="0" fill-rule="evenodd"/>
        <path fill-opacity="0.33516487" display="block" stroke="none" d="M 15.644737 17.903769 C 15.644737 19.929611 14.833494 21.571884 13.832776 21.571884 C 12.832058 21.571884 12.020815 19.929611 12.020815 17.903769 C 12.020815 15.877924 12.832058 14.235652 13.832776 14.235652 C 14.833494 14.235652 15.644737 15.877924 15.644737 17.903769 z " visibility="visible" stroke-linecap="round" transform="matrix(1.125982,0,0,1.054458,-4.566089,-6.660313)" stroke-miterlimit="4" stroke-opacity="1" fill="url(#radialGradient4782)" stroke-dasharray="none" stroke-width="1.5" color="#000000" stroke-linejoin="miter" stroke-dashoffset="0" fill-rule="evenodd"/>
        <path text-anchor="start" fill-opacity="1" stroke="none" d="M 19.718956 29.3237 L 17.369389 29.3237 L 17.369389 18.73462 L 14.383844 19.636192 L 14.383844 17.647425 L 19.718956 16.180157 L 19.718956 29.3237 M 32.023277 29.3237 L 23.967611 29.3237 L 23.967611 27.441 C 26.599833 24.77753 28.0926 23.260174 28.445929 22.888931 C 28.805126 22.511812 29.090729 22.117004 29.302725 21.704512 C 29.520596 21.28614 29.629536 20.832409 29.629543 20.34331 C 29.629536 19.777626 29.444044 19.323893 29.073069 18.982107 C 28.707964 18.634457 28.195652 18.46062 27.536127 18.460611 C 27.106256 18.46062 26.63222 18.575527 26.11402 18.805328 C 25.59582 19.02926 25.127674 19.344517 24.70958 19.7511 L 24.70958 17.373417 C 25.86964 16.70167 26.967873 16.365788 28.004276 16.365774 C 29.234997 16.365788 30.19779 16.695776 30.892656 17.35574 C 31.593395 18.009836 31.94377 18.914354 31.94378 20.069302 C 31.94377 20.78232 31.743555 21.504168 31.343136 22.234848 C 30.948591 22.965544 30.350897 23.702122 29.550043 24.44459 L 26.432009 27.35261 L 32.023277 27.35261 L 32.023277 29.3237 " font-variant="normal" stroke-linecap="butt" stroke-opacity="1" fill="url(#linearGradient6093)" font-weight="bold" stroke-width="1px" font-family="Segoe" font-style="normal" stroke-linejoin="miter" font-stretch="normal" font-size="14px"/>
        <path fill-opacity="1" display="block" stroke="url(#radialGradient6111)" d="M 14.584077 16.710526 C 14.584388 17.27914 14.281216 17.804691 13.788834 18.089088 C 13.296452 18.373486 12.689722 18.373486 12.19734 18.089088 C 11.704958 17.804691 11.401786 17.27914 11.402097 16.710526 C 11.401786 16.141912 11.704958 15.616359 12.19734 15.331962 C 12.689722 15.047565 13.296452 15.047565 13.788834 15.331962 C 14.281216 15.616359 14.584388 16.141912 14.584077 16.710526 z " visibility="visible" stroke-linecap="butt" transform="matrix(1.1813,0,0,1.182048,-4.864643,-6.422489)" stroke-miterlimit="4" stroke-opacity="1" fill="none" stroke-dasharray="none" stroke-width="0.84625739" color="#000000" stroke-linejoin="miter" stroke-dashoffset="0" fill-rule="evenodd"/>
        <path fill-opacity="1" display="block" stroke="none" d="M 14.584077 16.710526 C 14.584388 17.27914 14.281216 17.804691 13.788834 18.089088 C 13.296452 18.373486 12.689722 18.373486 12.19734 18.089088 C 11.704958 17.804691 11.401786 17.27914 11.402097 16.710526 C 11.401786 16.141912 11.704958 15.616359 12.19734 15.331962 C 12.689722 15.047565 13.296452 15.047565 13.788834 15.331962 C 14.281216 15.616359 14.584388 16.141912 14.584077 16.710526 z " visibility="visible" stroke-linecap="butt" transform="matrix(0.875764,0,0,0.876359,-0.916889,-1.31427)" stroke-miterlimit="4" stroke-opacity="1" fill="url(#radialGradient4699)" stroke-dasharray="none" stroke-width="1" color="#000000" stroke-linejoin="miter" stroke-dashoffset="0" fill-rule="evenodd"/>
        <path fill-opacity="1" display="block" stroke="none" d="M 14.584077 16.710526 C 14.584388 17.27914 14.281216 17.804691 13.788834 18.089088 C 13.296452 18.373486 12.689722 18.373486 12.19734 18.089088 C 11.704958 17.804691 11.401786 17.27914 11.402097 16.710526 C 11.401786 16.141912 11.704958 15.616359 12.19734 15.331962 C 12.689722 15.047565 13.296452 15.047565 13.788834 15.331962 C 14.281216 15.616359 14.584388 16.141912 14.584077 16.710526 z " visibility="visible" stroke-linecap="butt" transform="matrix(0.875764,0,0,0.876359,23.09141,-1.31427)" stroke-miterlimit="4" stroke-opacity="1" fill="url(#radialGradient4705)" stroke-dasharray="none" stroke-width="1" color="#000000" stroke-linejoin="miter" stroke-dashoffset="0" fill-rule="evenodd"/>
        <path fill-opacity="1" display="block" stroke="none" d="M 34.35484 2.47635 C 34.75239 2.4185524 35.091698 2.7260857 35.309303 3.0749345 C 35.526913 3.4237828 35.67465 3.860427 35.798775 4.342525 C 36.047028 5.3067207 36.19474 6.534146 36.214825 7.9340305 C 36.23491 9.333915 36.132168 10.653822 35.921143 11.701591 C 35.81563 12.225475 35.682632 12.678545 35.505093 13.074814 C 35.327553 13.471083 35.076126 13.846843 34.697468 13.990296 C 34.35956 14.116698 34.01441 13.825056 33.92655 13.338895 C 33.838696 12.852735 34.041405 12.356155 34.37931 12.229754 C 34.30879 12.256471 34.371742 12.269673 34.452732 12.08891 C 34.53372 11.908147 34.639973 11.580425 34.72194 11.173428 C 34.88588 10.359436 34.984447 9.207827 34.966675 7.9692416 C 34.948902 6.730657 34.80117 5.6290503 34.624046 4.941109 C 34.559498 4.690406 34.50844 4.5697103 34.452732 4.4481573 C 34.38377 4.6017704 34.282917 4.8189406 34.207996 5.152374 C 34.037132 5.9128356 33.936813 7.044862 33.93879 8.2861395 C 33.953587 8.620556 33.837982 8.9390955 33.63879 9.112754 C 33.439598 9.286413 33.18983 9.286413 32.99064 9.112754 C 32.791447 8.9390955 32.675842 8.620556 32.69064 8.2861395 C 32.688408 6.884056 32.806023 5.6003985 33.033268 4.5890007 C 33.146893 4.0833015 33.28044 3.6620536 33.473793 3.286199 C 33.667145 2.9103448 33.957283 2.5341473 34.35484 2.47635 z " visibility="visible" stroke-linecap="round" stroke-miterlimit="4" stroke-opacity="1" fill="url(#linearGradient3518)" stroke-width="1.59681714" color="#000000" stroke-linejoin="miter" stroke-dashoffset="0" fill-rule="evenodd"/>
        <path fill-opacity="1" display="block" stroke="none" d="M 10.618469 2.6171932 C 10.104879 2.5652602 9.645257 2.8532927 9.351739 3.1805668 C 9.058222 3.507841 8.857408 3.9071033 8.6831875 4.3777356 C 8.334746 5.319 8.113609 6.547535 8.08501 7.9340305 C 8.056408 9.320525 8.209471 10.602806 8.507253 11.631169 C 8.656143 12.145351 8.861692 12.590802 9.105431 12.969181 C 9.349168 13.347561 9.670223 13.720126 10.161039 13.849452 C 10.569136 13.956408 10.98661 13.712059 11.093492 13.303684 C 11.200375 12.89531 10.956192 12.477552 10.548095 12.370597 C 10.595884 12.38319 10.500125 12.357984 10.37216 12.159332 C 10.244196 11.96068 10.07058 11.625338 9.949917 11.208639 C 9.708591 10.375241 9.572221 9.221215 9.598048 7.9692416 C 9.623873 6.717268 9.827511 5.616771 10.090665 4.9058986 C 10.222241 4.550462 10.378603 4.276988 10.477721 4.1664705 C 10.464059 4.164515 10.45718 4.113972 10.548095 4.236892 C 10.666284 4.3966885 10.844143 4.7265177 10.970338 5.117163 C 11.22273 5.898454 11.395454 7.0315137 11.392581 8.2861395 C 11.341863 8.580609 11.470585 8.877125 11.720279 9.041004 C 11.969974 9.204883 12.29304 9.204883 12.542735 9.041004 C 12.792429 8.877125 12.921151 8.580609 12.870433 8.2861395 C 12.873611 6.8974047 12.697813 5.614779 12.377816 4.6242113 C 12.217817 4.1289277 12.043162 3.712917 11.779638 3.356621 C 11.516113 3.0003247 11.132058 2.6691263 10.618469 2.6171932 z " visibility="visible" stroke-linecap="round" stroke-miterlimit="4" stroke-opacity="1" fill="url(#linearGradient3525)" stroke-width="1.33171868" color="#000000" stroke-linejoin="miter" stroke-dashoffset="0" fill-rule="evenodd"/>
        <rect fill-opacity="1" display="block" stroke="none" visibility="visible" stroke-linecap="round" width="24.582342" stroke-miterlimit="4" stroke-opacity="1" fill="#868a84" stroke-dasharray="none" stroke-width="1.5" color="#000000" height="1" x="10.417658" stroke-linejoin="miter" y="8" stroke-dashoffset="0" fill-rule="evenodd"/>
        <path fill-opacity="1" display="block" stroke="none" d="M 14.584077 16.710526 C 14.584388 17.27914 14.281216 17.804691 13.788834 18.089088 C 13.296452 18.373486 12.689722 18.373486 12.19734 18.089088 C 11.704958 17.804691 11.401786 17.27914 11.402097 16.710526 C 11.401786 16.141912 11.704958 15.616359 12.19734 15.331962 C 12.689722 15.047565 13.296452 15.047565 13.788834 15.331962 C 14.281216 15.616359 14.584388 16.141912 14.584077 16.710526 z " visibility="visible" stroke-linecap="butt" transform="matrix(0.875764,0,0,0.876359,11.61742,-1.366726)" stroke-miterlimit="4" stroke-opacity="1" fill="url(#radialGradient4712)" stroke-dasharray="none" stroke-width="1" color="#000000" stroke-linejoin="miter" stroke-dashoffset="0" fill-rule="evenodd"/>
        <rect fill-opacity="1" display="block" stroke="none" visibility="visible" stroke-linecap="round" width="2.3223372" stroke-miterlimit="4" stroke-opacity="1" fill="url(#linearGradient4772)" stroke-dasharray="none" stroke-width="1.5" color="#000000" height="11.47873" x="21.817968" stroke-linejoin="miter" rx="1.03125" y="2.3101559" ry="1.03125" stroke-dashoffset="0" fill-rule="evenodd"/>
        <path fill-opacity="1" display="inline" stroke="#868a84" d="M 34.917824 35.178276 C 37.249 35.331024 42.53602 32.353306 42.047264 28.569117 C 40.898937 30.340254 38.55178 29.421255 35.533592 29.537483 C 35.533592 29.537483 35.912407 34.636032 34.917824 35.178276 z " visibility="visible" stroke-linecap="butt" stroke-miterlimit="4" stroke-opacity="1" fill="url(#linearGradient6055)" stroke-dasharray="none" stroke-width="1.00000048" color="#000000" stroke-linejoin="miter" stroke-dashoffset="0" fill-rule="evenodd"/>
        <path fill-opacity="1" display="inline" stroke="none" d="M 41.84375 29.78125 L 40.59375 30.0625 C 39.482975 30.314583 38.619694 30.10794 36.5625 30.09375 L 36.03125 30.09375 L 36.0625 30.625 C 36.0625 30.625 36.09224 31.20018 36.09375 31.84375 C 36.094505 32.165535 36.07435 32.49544 36.0625 32.78125 C 36.05065 33.06706 36.013405 33.319904 36.0 33.375 L 35.75 34.4375 L 36.71875 33.9375 C 37.713776 33.44321 40.030148 32.420837 41.125 30.84375 L 41.84375 29.78125 z M 39.375 31.0625 C 38.614414 31.699242 37.84676 32.217106 37.0625 32.625 C 37.069527 32.37158 37.094357 32.102158 37.09375 31.84375 C 37.092815 31.44678 37.06812 31.32648 37.0625 31.09375 C 38.02224 31.122517 38.705452 31.078775 39.375 31.0625 z " visibility="visible" stroke-linecap="butt" stroke-miterlimit="4" stroke-opacity="1" fill="url(#linearGradient3511)" stroke-width="1.00000012" color="#000000" stroke-linejoin="miter" stroke-dashoffset="0" fill-rule="evenodd"/>
        <path fill-opacity="0.55494504" display="block" stroke="none" d="M 23.8125 5.03125 C 23.8125 5.49724 23.43474 5.875 22.96875 5.875 C 22.50276 5.875 22.125 5.49724 22.125 5.03125 C 22.125 4.56526 22.50276 4.1875 22.96875 4.1875 C 23.43474 4.1875 23.8125 4.56526 23.8125 5.03125 z " visibility="visible" stroke-linecap="round" transform="matrix(0.592592,0,0,0.592592,9.076399,1.51852)" stroke-miterlimit="4" stroke-opacity="1" fill="#ffffff" stroke-dasharray="none" stroke-width="1.5" color="#000000" stroke-linejoin="miter" stroke-dashoffset="0" fill-rule="evenodd"/>
        <path fill-opacity="0.55494504" display="block" stroke="none" d="M 23.8125 5.03125 C 23.8125 5.49724 23.43474 5.875 22.96875 5.875 C 22.50276 5.875 22.125 5.49724 22.125 5.03125 C 22.125 4.56526 22.50276 4.1875 22.96875 4.1875 C 23.43474 4.1875 23.8125 4.56526 23.8125 5.03125 z " visibility="visible" stroke-linecap="round" transform="matrix(0.62963,0,0,0.62963,-4.993064,1.363424)" stroke-miterlimit="4" stroke-opacity="1" fill="#ffffff" stroke-dasharray="none" stroke-width="1.5" color="#000000" stroke-linejoin="miter" stroke-dashoffset="0" fill-rule="evenodd"/>
        <path fill-opacity="0.55494504" display="block" stroke="none" d="M 23.8125 5.03125 C 23.8125 5.49724 23.43474 5.875 22.96875 5.875 C 22.50276 5.875 22.125 5.49724 22.125 5.03125 C 22.125 4.56526 22.50276 4.1875 22.96875 4.1875 C 23.43474 4.1875 23.8125 4.56526 23.8125 5.03125 z " visibility="visible" stroke-linecap="round" transform="matrix(0.62963,0,0,0.62963,20.88194,1.363424)" stroke-miterlimit="4" stroke-opacity="1" fill="#ffffff" stroke-dasharray="none" stroke-width="1.5" color="#000000" stroke-linejoin="miter" stroke-dashoffset="0" fill-rule="evenodd"/>
        <path fill-opacity="1" display="block" stroke="url(#radialGradient6115)" d="M 14.584077 16.710526 C 14.584388 17.27914 14.281216 17.804691 13.788834 18.089088 C 13.296452 18.373486 12.689722 18.373486 12.19734 18.089088 C 11.704958 17.804691 11.401786 17.27914 11.402097 16.710526 C 11.401786 16.141912 11.704958 15.616359 12.19734 15.331962 C 12.689722 15.047565 13.296452 15.047565 13.788834 15.331962 C 14.281216 15.616359 14.584388 16.141912 14.584077 16.710526 z " visibility="visible" stroke-linecap="butt" transform="matrix(1.1813,0,0,1.182048,7.664405,-6.422489)" stroke-miterlimit="4" stroke-opacity="1" fill="none" stroke-dasharray="none" stroke-width="0.84625739" color="#000000" stroke-linejoin="miter" stroke-dashoffset="0" fill-rule="evenodd"/>
        <path fill-opacity="1" display="block" stroke="url(#radialGradient6119)" d="M 14.584077 16.710526 C 14.584388 17.27914 14.281216 17.804691 13.788834 18.089088 C 13.296452 18.373486 12.689722 18.373486 12.19734 18.089088 C 11.704958 17.804691 11.401786 17.27914 11.402097 16.710526 C 11.401786 16.141912 11.704958 15.616359 12.19734 15.331962 C 12.689722 15.047565 13.296452 15.047565 13.788834 15.331962 C 14.281216 15.616359 14.584388 16.141912 14.584077 16.710526 z " visibility="visible" stroke-linecap="butt" transform="matrix(1.1813,0,0,1.182048,19.17699,-6.422489)" stroke-miterlimit="4" stroke-opacity="1" fill="none" stroke-dasharray="none" stroke-width="0.84625739" color="#000000" stroke-linejoin="miter" stroke-dashoffset="0" fill-rule="evenodd"/>
    </g>
</svg>
